<svg aria-hidden="true" style="position: absolute; width: 0; height: 0; overflow: hidden;" version="1.1" xmlns="http://www.w3.org/2000/svg" xmlns:xlink="http://www.w3.org/1999/xlink">
<defs>
<symbol id="icon-stream" viewBox="0 0 32 32">
<path d="M16 0c-8.835 0-16 7.165-16 16s7.165 16 16 16 16-7.165 16-16-7.165-16-16-16zM21.146 16.247l-7.8 5.674c-0.046 0.034-0.105 0.055-0.168 0.055-0.158 0-0.286-0.128-0.286-0.286 0-0 0-0.001 0-0.001v0-11.343c0-0 0-0.001 0-0.001 0-0.158 0.128-0.286 0.286-0.286 0.063 0 0.121 0.021 0.169 0.055l-0.001-0.001 7.8 5.672c0.073 0.052 0.119 0.135 0.119 0.23 0 0.047-0.012 0.091-0.032 0.131l0.001-0.002c-0.021 0.041-0.051 0.075-0.087 0.101l-0.001 0.001z"></path>
</symbol>
<symbol id="icon-rating" viewBox="0 0 32 32">
<path d="M24.169 30.222c-0.411-0-0.793-0.126-1.109-0.341l0.007 0.004-6.631-4.445c-0.031-0.022-0.069-0.035-0.111-0.035s-0.080 0.013-0.112 0.035l0.001-0-6.631 4.445c-0.308 0.208-0.687 0.332-1.095 0.332-1.090 0-1.973-0.884-1.973-1.973 0-0.178 0.024-0.351 0.068-0.515l-0.003 0.014 2.177-7.68c0.004-0.016 0.007-0.034 0.007-0.053 0-0.065-0.030-0.122-0.077-0.16l-0-0-6.276-4.933c-0.484-0.364-0.794-0.937-0.794-1.582 0-1.078 0.865-1.955 1.939-1.973l0.002-0 8-0.302c0.082-0.006 0.15-0.059 0.178-0.132l0-0.001 2.755-7.493c0.286-0.761 1.007-1.294 1.853-1.294s1.568 0.532 1.849 1.28l0.005 0.014 2.756 7.493c0.028 0.074 0.096 0.127 0.176 0.133l0.001 0 8 0.302c1.076 0.018 1.941 0.895 1.941 1.973 0 0.645-0.31 1.218-0.789 1.579l-0.005 0.004-6.275 4.933c-0.048 0.036-0.079 0.093-0.079 0.158 0 0.020 0.003 0.039 0.008 0.057l-0-0.001 2.178 7.68c0.040 0.149 0.064 0.321 0.064 0.498 0 1.095-0.887 1.982-1.982 1.982-0.007 0-0.014-0-0.021-0h0.001zM16.329 23.627c0.395 0.012 0.775 0.142 1.093 0.373l6.631 4.445c0.033 0.025 0.074 0.040 0.119 0.040 0.108 0 0.195-0.087 0.195-0.195 0-0.024-0.005-0.048-0.013-0.070l0 0.001-2.177-7.68c-0.048-0.161-0.075-0.347-0.075-0.538 0-0.628 0.295-1.188 0.755-1.547l0.004-0.003 6.276-4.933c0.051-0.036 0.083-0.094 0.083-0.16 0-0.108-0.087-0.195-0.195-0.195-0.002 0-0.003 0-0.005 0h0l-8-0.303c-0.816-0.033-1.502-0.557-1.773-1.283l-0.004-0.014-2.756-7.493c-0.025-0.081-0.099-0.138-0.187-0.138s-0.161 0.058-0.186 0.137l-0 0.001-2.729 7.484c-0.275 0.741-0.961 1.265-1.774 1.298l-0.004 0-8 0.302c-0.001 0-0.002-0-0.003-0-0.108 0-0.196 0.088-0.196 0.196 0 0.022 0.004 0.043 0.010 0.063l-0-0.001c0.014 0.039 0.039 0.075 0.074 0.098l6.285 4.942c0.463 0.365 0.757 0.925 0.757 1.554 0 0.19-0.027 0.374-0.077 0.548l0.003-0.014-2.169 7.68c-0.006 0.018-0.010 0.038-0.010 0.059 0 0.064 0.032 0.12 0.081 0.154l0.001 0c0.031 0.026 0.071 0.043 0.115 0.043s0.084-0.016 0.115-0.043l-0 0 6.631-4.444c0.307-0.206 0.685-0.33 1.092-0.33 0 0 0.001 0 0.002 0h-0l0.009-0.035z"></path>
</symbol>
<symbol id="icon-search" viewBox="0 0 32 32">
<path d="M22.702 20.492l8.337 8.337c0.282 0.283 0.457 0.673 0.457 1.104 0 0.863-0.7 1.563-1.563 1.563-0.432 0-0.823-0.175-1.106-0.459l-8.336-8.336c-2.074 1.619-4.718 2.596-7.591 2.596-6.846 0-12.396-5.55-12.396-12.396s5.55-12.396 12.396-12.396c6.846 0 12.396 5.55 12.396 12.396 0 2.872-0.977 5.516-2.616 7.618l0.021-0.028h0.002zM12.901 22.198c5.135 0 9.297-4.163 9.297-9.297s-4.163-9.297-9.297-9.297v0c-5.135 0-9.297 4.163-9.297 9.297s4.163 9.297 9.297 9.297v0z"></path>
</symbol>
<symbol id="icon-arrow" viewBox="0 0 20 32">
<path d="M4.372 1.325l-3.449 3.449 11.203 11.225-11.2 11.225 3.448 3.448 14.671-14.673-14.673-14.675z"></path>
</symbol>
<symbol id="icon-star" viewBox="0 0 34 32">
<path d="M17.143 0l-5.2 10.537-11.623 1.68 8.411 8.206-1.989 11.577 10.4-5.463 10.4 5.463-1.989-11.577 8.411-8.194-11.623-1.691-5.2-10.537z"></path>
</symbol>
</defs>
</svg>
